<svg xmlns="http://www.w3.org/2000/svg" viewBox="0 0 128 42">
	<style>
		.keybacks,
		.keys {
			fill: hsl(224, 7%, 86%);
			stroke: hsl(224, 7%, 60%);
		}
		.keys {
			fill: #fff;
		}
		.arrows {
			fill: none;
			stroke: hsl(224, 7%, 22%);
			stroke-linecap: round;
			stroke-linejoin: round;
			stroke-width: 1.5;
		}
	</style>
	<g class="keybacks">
		<path d="M81.5 41.5h-13a2 2 0 0 1-2-2v-13c0-1.1.9-2 2-2h13a2 2 0 0 1 2 2v13a2 2 0 0 1-2 2z" />
		<path d="M103.5 41.5h-13a2 2 0 0 1-2-2v-13c0-1.1.9-2 2-2h13a2 2 0 0 1 2 2v13a2 2 0 0 1-2 2z" />
		<path d="M125.5 41.5h-13a2 2 0 0 1-2-2v-13c0-1.1.9-2 2-2h13a2 2 0 0 1 2 2v13a2 2 0 0 1-2 2z" />
		<path d="M103.5 19.5h-13a2 2 0 0 1-2-2v-13c0-1.1.9-2 2-2h13a2 2 0 0 1 2 2v13a2 2 0 0 1-2 2z" />
		<path d="M38.5 33.5h-36a2 2 0 0 1-2-2v-19c0-1.1.9-2 2-2h36a2 2 0 0 1 2 2v19a2 2 0 0 1-2 2z" />
	</g>
	<g class="keys">
		<path d="M81.5 39.5h-13a2 2 0 0 1-2-2v-13c0-1.1.9-2 2-2h13a2 2 0 0 1 2 2v13a2 2 0 0 1-2 2z" />
		<path d="M103.5 39.5h-13a2 2 0 0 1-2-2v-13c0-1.1.9-2 2-2h13a2 2 0 0 1 2 2v13a2 2 0 0 1-2 2z" />
		<path d="M125.5 39.5h-13a2 2 0 0 1-2-2v-13c0-1.1.9-2 2-2h13a2 2 0 0 1 2 2v13a2 2 0 0 1-2 2z" />
		<path d="M103.5 17.5h-13a2 2 0 0 1-2-2v-13c0-1.1.9-2 2-2h13a2 2 0 0 1 2 2v13a2 2 0 0 1-2 2z" />
		<path d="M38.5 31.5h-36a2 2 0 0 1-2-2v-19c0-1.1.9-2 2-2h36a2 2 0 0 1 2 2v19a2 2 0 0 1-2 2z" />
	</g>
	<g class="arrows">
		<path d="m95 8 2-2 2 2M97 6v6"/>
		<path d="m99 32-2 2-2-2M97 34v-6"/>
		<path d="m120 29 2 2-2 2M122 31h-6"/>
		<path d="m74 33-2-2 2-2M72 31h6"/>
		<path d="M14 16h4M22 24v-8h2a2 2 0 0 1 2 2v0a2 2 0 0 1-2 2h-2 2a2 2 0 0 1 2 2v2M16 16v8M11 18h0a2 2 0 0 0-2-2h0a2 2 0 0 0-2 2v4c0 1.1.9 2 2 2h0a2 2 0 0 0 2-2v0M30 16v8h4"/>
		<path d="M54 16v8M50 20h8" stroke="hsl(224, 7%, 40%)"/>
	</g>
</svg>