<svg xmlns="http://www.w3.org/2000/svg" viewBox="0 0 28 28">
	<style>
		.mouse {
			fill: hsl(224, 15%, 94%);
			stroke: hsl(224, 7%, 22%);
			stroke-linecap: round;
			stroke-linejoin: round;
		}
		.highlight {
			fill: hsla(209, 100%, 47%, 0.33);
		}
		.arrows {
			fill: none;
			stroke: hsl(209, 100%, 47%);
			stroke-linecap: round;
			stroke-linejoin: round;
		}
	</style>
	<rect class="mouse" x="8.5" y="8" width="11" height="18" rx="5" />
	<g class="arrows">
		<polyline points="19.9,5.8 18.2,4.4 20.4,3.9 " />
		<path d="M7.2,9.9C5.5,9.3,4.5,8.5,4.5,7.5c0-1.2,1.6-2.2,4-2.9" />
		<path d="M18.2,4.4c3.1,0.6,5.3,1.8,5.3,3.1c0,1-1,1.8-2.7,2.4" />
	</g>
	<path class="highlight" d="M13.5,8H14v6.5c0,0.6-0.4,1-1,1H8.5V13C8.5,10.2,10.7,8,13.5,8z"/>
	<line class="mouse" x1="14" y1="11" x2="14" y2="13"/>
</svg>