<svg xmlns="http://www.w3.org/2000/svg" viewBox="0 0 28 28">
	<style>
		.hand {
			fill: hsl(224, 15%, 94%);
			stroke: hsl(224, 7%, 22%);
			stroke-linecap: round;
			stroke-linejoin: round;
		}
		.arrows {
			fill: none;
			stroke: hsl(209, 100%, 47%);
			stroke-linecap: round;
			stroke-linejoin: round;
		}
	</style>
	<g class="hand">
		<path d="M15.6,16l-2,2l-2-1l-1.6-1.1c-0.8-0.5-1.8-0.4-2.5,0.2L6.6,17l4,4l4,2l0.4,1.1c0.3,1,1.5,1.6,2.5,1.3l5.2-1.7  c1-0.3,1.6-1.5,1.3-2.5L23.6,20l0.8-6.5c0.1-0.9-0.2-1.8-0.9-2.5l-3.7-3.7C19.7,7.1,19.4,7,19.2,7H17c-0.3,0-0.5,0.1-0.7,0.3  c0,0-0.7,0.7-0.7,0.7H15c-0.3,0-0.5,0.1-0.7,0.3L12.6,10H9.1c-0.8,0-1.5,0.7-1.5,1.5v0c0,0.8,0.7,1.5,1.5,1.5l2.6,0  c-0.1,0.2-0.1,0.3-0.1,0.5c0,0.8,0.7,1.5,1.5,1.5c0.6,0,1.1-0.3,1.3-0.8L15.6,16z" />
		<path d="M20.6,11l-2.7-2.7C17.7,8.1,17.4,8,17.2,8h-1.6" />
		<polyline points="17.6,12 15.6,10 12.6,10 " />
		<polyline points="11.7,13 13.6,13 14.4,14.2 "/>
	</g>
	<g class="arrows">
		<line x1="11.6" y1="4" x2="9.6" y2="8" />
		<polyline points="11.4,6.7 9.6,8 9.6,5.8 " />
		<line x1="3.6" y1="24" x2="5.6" y2="20" />
		<polyline points="3.8,21.3 5.6,20 5.6,22.2 " />
	</g>
</svg>