<svg xmlns="http://www.w3.org/2000/svg" viewBox="0 0 28 28">
	<style>
		.hand {
			fill: hsl(224, 15%, 94%);
			stroke: hsl(224, 7%, 22%);
			stroke-linecap: round;
			stroke-linejoin: round;
		}
		.arrows {
			fill: none;
			stroke: hsl(209, 100%, 47%);
			stroke-linecap: round;
			stroke-linejoin: round;
		}
	</style>
	<g class="hand">
		<path d="M18.7,15.3L13.5,14V9.5C13.5,8.7,12.8,8,12,8s-1.5,0.7-1.5,1.5V16l-1.6,0.5c-0.8,0.3-1.4,1-1.4,1.9v2   c0,0.4,0.1,0.7,0.3,1L9.9,25c0.4,0.6,1,1,1.7,1h6.2c1,0,1.8-0.7,2-1.6l1.1-5.6C21.3,17.2,20.3,15.7,18.7,15.3z" />
		<line x1="10.5" y1="19" x2="10.5" y2="16" />
	</g>
	<g class="arrows">
		<polyline points="19.9,5.8 18.2,4.4 20.4,3.9" />
		<path d="M8.5,10.4c-2.4-0.6-4-1.7-4-2.9c0-1.2,1.6-2.2,4-2.9" />
		<path d="M18.2,4.4c3.1,0.6,5.3,1.8,5.3,3.1c0,1.7-3.5,3.2-8,3.5" />
	</g>
</svg>