<svg xmlns="http://www.w3.org/2000/svg" viewBox="0 0 28 28">
	<style>
		.hand {
			fill: hsl(224, 15%, 94%);
			stroke: hsl(224, 7%, 22%);
			stroke-linecap: round;
			stroke-linejoin: round;
		}
		.arrows {
			fill: none;
			stroke: hsl(209, 100%, 47%);
			stroke-linecap: round;
			stroke-linejoin: round;
		}
	</style>
	<g class="hand">
		<path d="M16.5 14.7V9.5c0-.8-.7-1.5-1.5-1.5s-1.5.7-1.5 1.5v5-5c0-.8-.7-1.5-1.5-1.5s-1.5.7-1.5 1.5V16l-1.6.5a2 2 0 0 0-1.4 1.9v2c0 .4.1.7.3 1L9.9 25c.4.6 1 1 1.7 1h6.2a2 2 0 0 0 2-1.6l1.1-5.6a3 3 0 0 0-2.2-3.5l-2.2-.6z" />
		<line x1="10.5" x2="10.5" y1="19" y2="16" />
	</g>
	<g class="arrows">
		<polyline points="6.5,11 4.5,10 6.5,9" />
		<polyline points="20.5,11 22.5,10 20.5,9" />
		<line x1="4.5" x2="8.5" y1="10" y2="10" />
		<line x1="22.5" x2="18.5" y1="10" y2="10" />
		<polyline points="14.5,4 13.5,2 12.5,4" />
		<line x1="13.5" x2="13.5" y1="6" y2="2" />
	</g>
</svg>