<svg xmlns="http://www.w3.org/2000/svg" width="1131.7" height="789.9" viewBox="366 -294.9 1131.7 789.9">
<path fill="#004586" d="M1252.3 400.4c-7.9 0-14.4-6.4-14.4-14.4V105.6c.2-7.9 6.8-14.2 14.8-14 7.7.2 13.8 6.4 14 14V386c0 7.9-6.5 14.4-14.4 14.4zM684.6 402.4c-58.4 0-105.8-47.4-105.8-105.8s47.4-105.8 105.8-105.8 105.8 47.4 105.8 105.8c-.1 58.4-47.5 105.7-105.8 105.8zm0-182.8c-42.5 0-77 34.5-77 77s34.5 77 77 77 77-34.5 77-77c-.1-42.5-34.5-76.9-77-77zM1497.5 279.5c-9.4-57.7-63.8-96.7-121.5-87.3s-96.7 63.8-87.3 121.5c8.4 51.1 52.6 88.7 104.4 88.7 36.6-.1 71.4-16.1 95.3-43.7 5.2-6 4.6-15.1-1.4-20.3-6-5.2-15.1-4.6-20.3 1.4-18.5 21.2-46.1 33.9-73.7 33.9-41 0-74.8-32.2-76.9-73.1H1483c7.9 0 14.4-6.4 14.4-14.4 0-.4 0-.8-.1-1.2.4-1.9.5-3.7.2-5.5zm-104.4-59.9c33-.1 62.3 20.9 72.9 52.1h-145.7c10.6-31.1 39.9-52.1 72.8-52.1zM905.4 191.4c-25.1 0-48 10-65.4 26.5v-13.2c0-7.9-6.4-14.4-14.4-14.4s-14.4 6.4-14.4 14.4V265c0 .1-.1.2-.1.3v62.6c0 .1.1.2.1.4v152.4c0 7.9 6.4 14.4 14.4 14.4s14.4-6.4 14.4-14.4V375.5c17.6 16.8 41 26.3 65.4 26.3 54.4 0 98.7-47.2 98.7-105.3s-44.2-105.1-98.7-105.1zm0 182.7c-26.4 0-50.5-15.9-62.8-41.4a83.62 83.62 0 0 1-8.2-36.1c0-42.7 31.9-77.5 71-77.5s71 34.8 71 77.5-31.8 77.5-71 77.5zM559 264.5c0-.1-.1-.2-.1-.3v-159c-.2-7.9-6.8-14.2-14.8-14-7.7.2-13.8 6.4-14 14v111.7c-17.6-16.8-41-26.3-65.4-26.3-54.4 0-98.7 47.2-98.7 105.2s44.3 105.3 98.7 105.3c25.1 0 48-10 65.4-26.5v13.2c.2 7.9 6.8 14.2 14.8 14 7.7-.2 13.8-6.4 14-14v-60.3c0-.1.1-.2.1-.3v-62.7zm-94.3 108.9c-39.1 0-71-34.8-71-77.5s31.9-77.5 71-77.5c26.4 0 50.5 15.9 62.8 41.4 5.4 11.3 8.2 23.6 8.2 36.1 0 42.7-31.8 77.5-71 77.5zM1118.5 191.4c-25.1 0-48 10-65.4 26.5v-13.2c0-7.9-6.4-14.4-14.4-14.4s-14.4 6.4-14.4 14.4V265c0 .1-.1.2-.1.3v62.6c0 .1.1.2.1.4v152.4c0 7.9 6.4 14.4 14.4 14.4s14.4-6.4 14.4-14.4V375.5c17.6 16.8 41 26.3 65.4 26.3 54.4 0 98.7-47.2 98.7-105.3s-44.2-105.1-98.7-105.1zm0 182.7c-26.4 0-50.5-15.9-62.8-41.4a83.62 83.62 0 0 1-8.2-36.1c0-42.7 31.9-77.5 71-77.5s71 34.8 71 77.5-31.8 77.5-71 77.5z"/>
<path fill="#004586" d="M872.6-56.2c-18.3-2.3-34.7-14.2-45.2-27.3-4.5 9.2-7 19.2-7.3 29.5-1.2 39.9 32.3 72 72.3 72s72.5-31.6 72.1-72.5c0 0-74.1.5-91.9-1.7z"/>
<path fill="#004586" d="M808.2-49.7c-1.2-49.1 38.6-84.4 83.9-84.4h31.2c22.9 0 41.4-18.5 41.4-41.4s-18.5-41.4-41.4-41.4h-18.1c-56.8 0-102.8 46-102.9 102.8v42.9c0 8 3 25.1 7.6 37.1 0 .1.1.1.2.1s.1-.1.1-.2c-1.3-5.1-1.9-10.3-2-15.5z"/>
<path fill="#004586" d="M1017.9-289.5c-22.9 0-41.5 18.6-41.5 41.4V-54c-.1 39.6-27.7 73.9-66.5 82.2-.1 0-.1.1-.1.1 0 .1.1.1.1.1h43.7c56.8 0 105.7-46 105.7-102.9v-173.7c0-22.7-18.5-41.3-41.4-41.3z"/>
</svg>