<svg xmlns="http://www.w3.org/2000/svg" width="318px" height="318px" viewBox="366 495 318 318">
<path fill="#004586" d="M466.8,728.3c-18.3-2.3-34.7-14.2-45.2-27.3c-4.5,9.2-7,19.2-7.3,29.5c-1.2,40,32.3,72,72.3,72s72.5-31.6,72.1-72.5C558.7,730,484.5,730.6,466.8,728.3z"/>
<path fill="#004586" d="M402.4,734.8c-1.2-49.1,38.6-84.4,83.9-84.4h31.2c22.9,0,41.4-18.5,41.4-41.4l0,0c0-22.9-18.5-41.4-41.4-41.4h-18.1c-56.8,0-102.8,46-102.9,102.8v42.9c0,8,3,25.1,7.6,37.1c0,0.1,0.1,0.1,0.2,0.1s0.1-0.1,0.1-0.2C403.1,745.2,402.5,740,402.4,734.8z"/>
<path fill="#004586" d="M612.1,495c-22.9,0-41.5,18.6-41.5,41.4c0,0,0,0,0,0v194.1c-0.1,39.6-27.7,73.9-66.5,82.2c-0.1,0-0.1,0.1-0.1,0.1c0,0.1,0.1,0.1,0.1,0.1h43.7c56.8,0,105.7-46,105.7-102.9V536.5C653.5,513.6,635,495,612.1,495z"/>
</svg>
