<?xml version="1.0" encoding="utf-8"?>
<!-- Generator: Adobe Illustrator 19.0.0, SVG Export Plug-In . SVG Version: 6.00 Build 0)  -->
<svg version="1.1" xmlns="http://www.w3.org/2000/svg" xmlns:xlink="http://www.w3.org/1999/xlink" x="0px" y="0px" width="62px"
	 height="42px" viewBox="0 0 62 42" style="enable-background:new 0 0 62 42;" xml:space="preserve">
<style type="text/css">
	.st0{fill:#E2E2E2;stroke:#B2B2B2;stroke-miterlimit:10;}
	.st1{fill:#FFFFFF;stroke:#B2B2B2;stroke-miterlimit:10;}
	.st2{fill:none;stroke:#000000;stroke-width:2;stroke-linecap:round;stroke-linejoin:round;stroke-miterlimit:10;}
</style>
<g id="keybacks">
	<path id="XMLID_1_" class="st0" d="M15.5,41.5h-13c-1.1,0-2-0.9-2-2v-13c0-1.1,0.9-2,2-2h13c1.1,0,2,0.9,2,2v13
		C17.5,40.6,16.6,41.5,15.5,41.5z"/>
	<path id="XMLID_2_" class="st0" d="M37.5,41.5h-13c-1.1,0-2-0.9-2-2v-13c0-1.1,0.9-2,2-2h13c1.1,0,2,0.9,2,2v13
		C39.5,40.6,38.6,41.5,37.5,41.5z"/>
	<path id="XMLID_3_" class="st0" d="M59.5,41.5h-13c-1.1,0-2-0.9-2-2v-13c0-1.1,0.9-2,2-2h13c1.1,0,2,0.9,2,2v13
		C61.5,40.6,60.6,41.5,59.5,41.5z"/>
	<path id="XMLID_30_" class="st0" d="M37.5,19.5h-13c-1.1,0-2-0.9-2-2v-13c0-1.1,0.9-2,2-2h13c1.1,0,2,0.9,2,2v13
		C39.5,18.6,38.6,19.5,37.5,19.5z"/>
</g>
<g id="keys">
	<path id="XMLID_112_" class="st1" d="M15.5,39.5h-13c-1.1,0-2-0.9-2-2v-13c0-1.1,0.9-2,2-2h13c1.1,0,2,0.9,2,2v13
		C17.5,38.6,16.6,39.5,15.5,39.5z"/>
	<path id="XMLID_111_" class="st1" d="M37.5,39.5h-13c-1.1,0-2-0.9-2-2v-13c0-1.1,0.9-2,2-2h13c1.1,0,2,0.9,2,2v13
		C39.5,38.6,38.6,39.5,37.5,39.5z"/>
	<path id="XMLID_110_" class="st1" d="M59.5,39.5h-13c-1.1,0-2-0.9-2-2v-13c0-1.1,0.9-2,2-2h13c1.1,0,2,0.9,2,2v13
		C61.5,38.6,60.6,39.5,59.5,39.5z"/>
	<path id="XMLID_109_" class="st1" d="M37.5,17.5h-13c-1.1,0-2-0.9-2-2v-13c0-1.1,0.9-2,2-2h13c1.1,0,2,0.9,2,2v13
		C39.5,16.6,38.6,17.5,37.5,17.5z"/>
</g>
<g id="arrows">
	<polyline id="XMLID_152_" class="st2" points="29,8 31,6 33,8 	"/>
	<line id="XMLID_153_" class="st2" x1="31" y1="6" x2="31" y2="12"/>
	<polyline id="XMLID_155_" class="st2" points="33,32 31,34 29,32 	"/>
	<line id="XMLID_154_" class="st2" x1="31" y1="34" x2="31" y2="28"/>
	<polyline id="XMLID_5_" class="st2" points="54,29 56,31 54,33 	"/>
	<line id="XMLID_4_" class="st2" x1="56" y1="31" x2="50" y2="31"/>
	<polyline id="XMLID_7_" class="st2" points="8,33 6,31 8,29 	"/>
	<line id="XMLID_6_" class="st2" x1="6" y1="31" x2="12" y2="31"/>
</g>
</svg>
