<?xml version="1.0" encoding="utf-8"?>
<!-- Generator: Adobe Illustrator 19.0.0, SVG Export Plug-In . SVG Version: 6.00 Build 0)  -->
<svg version="1.1" xmlns="http://www.w3.org/2000/svg" xmlns:xlink="http://www.w3.org/1999/xlink" x="0px" y="0px" width="128px"
	 height="42px" viewBox="0 0 128 42" style="enable-background:new 0 0 128 42;" xml:space="preserve">
<style type="text/css">
	.st0{fill:#E2E2E2;stroke:#B2B2B2;stroke-miterlimit:10;}
	.st1{fill:#FFFFFF;stroke:#B2B2B2;stroke-miterlimit:10;}
	.st2{fill:none;stroke:#000000;stroke-width:2;stroke-linecap:round;stroke-linejoin:round;stroke-miterlimit:10;}
	.st3{fill:none;stroke:#000000;stroke-width:2;stroke-linecap:round;stroke-miterlimit:10;}
</style>
<g id="keybacks">
	<path id="XMLID_1_" class="st0" d="M81.5,41.5h-13c-1.1,0-2-0.9-2-2v-13c0-1.1,0.9-2,2-2h13c1.1,0,2,0.9,2,2v13
		C83.5,40.6,82.6,41.5,81.5,41.5z"/>
	<path id="XMLID_2_" class="st0" d="M103.5,41.5h-13c-1.1,0-2-0.9-2-2v-13c0-1.1,0.9-2,2-2h13c1.1,0,2,0.9,2,2v13
		C105.5,40.6,104.6,41.5,103.5,41.5z"/>
	<path id="XMLID_3_" class="st0" d="M125.5,41.5h-13c-1.1,0-2-0.9-2-2v-13c0-1.1,0.9-2,2-2h13c1.1,0,2,0.9,2,2v13
		C127.5,40.6,126.6,41.5,125.5,41.5z"/>
	<path id="XMLID_30_" class="st0" d="M103.5,19.5h-13c-1.1,0-2-0.9-2-2v-13c0-1.1,0.9-2,2-2h13c1.1,0,2,0.9,2,2v13
		C105.5,18.6,104.6,19.5,103.5,19.5z"/>
	<path id="XMLID_174_" class="st0" d="M38.5,33.5h-36c-1.1,0-2-0.9-2-2v-19c0-1.1,0.9-2,2-2h36c1.1,0,2,0.9,2,2v19
		C40.5,32.6,39.6,33.5,38.5,33.5z"/>
</g>
<g id="keys">
	<path id="XMLID_67_" class="st1" d="M81.5,39.5h-13c-1.1,0-2-0.9-2-2v-13c0-1.1,0.9-2,2-2h13c1.1,0,2,0.9,2,2v13
		C83.5,38.6,82.6,39.5,81.5,39.5z"/>
	<path id="XMLID_66_" class="st1" d="M103.5,39.5h-13c-1.1,0-2-0.9-2-2v-13c0-1.1,0.9-2,2-2h13c1.1,0,2,0.9,2,2v13
		C105.5,38.6,104.6,39.5,103.5,39.5z"/>
	<path id="XMLID_65_" class="st1" d="M125.5,39.5h-13c-1.1,0-2-0.9-2-2v-13c0-1.1,0.9-2,2-2h13c1.1,0,2,0.9,2,2v13
		C127.5,38.6,126.6,39.5,125.5,39.5z"/>
	<path id="XMLID_64_" class="st1" d="M103.5,17.5h-13c-1.1,0-2-0.9-2-2v-13c0-1.1,0.9-2,2-2h13c1.1,0,2,0.9,2,2v13
		C105.5,16.6,104.6,17.5,103.5,17.5z"/>
	<path id="XMLID_10_" class="st1" d="M38.5,31.5h-36c-1.1,0-2-0.9-2-2v-19c0-1.1,0.9-2,2-2h36c1.1,0,2,0.9,2,2v19
		C40.5,30.6,39.6,31.5,38.5,31.5z"/>
</g>
<g id="arrows">
	<polyline id="XMLID_152_" class="st2" points="95,8 97,6 99,8 	"/>
	<line id="XMLID_153_" class="st2" x1="97" y1="6" x2="97" y2="12"/>
	<polyline id="XMLID_155_" class="st2" points="99,32 97,34 95,32 	"/>
	<line id="XMLID_154_" class="st2" x1="97" y1="34" x2="97" y2="28"/>
	<polyline id="XMLID_5_" class="st2" points="120,29 122,31 120,33 	"/>
	<line id="XMLID_4_" class="st2" x1="122" y1="31" x2="116" y2="31"/>
	<polyline id="XMLID_7_" class="st2" points="74,33 72,31 74,29 	"/>
	<line id="XMLID_6_" class="st2" x1="72" y1="31" x2="78" y2="31"/>
	<path id="XMLID_175_" class="st2" d="M11,24v-6c0-1.1,0.9-2,2-2h0c1.1,0,2,0.9,2,2v6"/>
	<line id="XMLID_177_" class="st2" x1="11" y1="20" x2="15" y2="20"/>
	<polyline id="XMLID_173_" class="st2" points="19,16 19,24 23,24 	"/>
	<line id="XMLID_179_" class="st2" x1="26" y1="16" x2="30" y2="16"/>
	<line id="XMLID_180_" class="st2" x1="28" y1="16" x2="28" y2="24"/>
	<line id="XMLID_57_" class="st3" x1="54" y1="16" x2="54" y2="24"/>
	<line id="XMLID_58_" class="st3" x1="50" y1="20" x2="58" y2="20"/>
</g>
</svg>
