<svg xmlns="http://www.w3.org/2000/svg" width="20" height="20" viewBox="0 0 20 20">
  <path d="M2.5 5.5v9c0 1.1.9 2 2 2h11c1.1 0 2-.9 2-2v-7c0-1.1-.9-2-2-2h-4.9c-.7 0-1.3-.4-1.6-1h0c-.3-.6-.9-1-1.6-1H4.5c-1.1 0-2 .9-2 2z" style="fill:#bf9447;stroke:#917634;stroke-linecap:round;stroke-linejoin:round;stroke-miterlimit:10"/>
  <path d="M2.5 8.5v6c0 1.1.9 2 2 2h11c1.1 0 2-.9 2-2v-7c0-1.1-.9-2-2-2H8.9c-.3 0-.5.1-.7.3l-.4.4c-.2.2-.4.3-.7.3H4.5c-1.1 0-2 .9-2 2z" style="fill:#e8b754;stroke:#917634;stroke-linecap:round;stroke-linejoin:round;stroke-miterlimit:10"/>
</svg>
