<svg xmlns="http://www.w3.org/2000/svg" width="20" height="20" viewBox="0 0 20 20">
  <path d="M2.5 5.5v9c0 1.1.9 2 2 2h11c1.1 0 2-.9 2-2v-7c0-1.1-.9-2-2-2h-5.4c-.4 0-.7-.2-.9-.6l-.4-.8c-.2-.4-.5-.6-.9-.6H4.5c-1.1 0-2 .9-2 2z" style="fill:#bf9447;stroke:#917634;stroke-linecap:round;stroke-linejoin:round;stroke-miterlimit:10"/>
  <path d="M4.1 10 3 14.6c-.2.9.5 1.9 1.5 1.9H16c.9 0 1.7-.7 2-1.6l1.2-5.6c.2-.9-.5-1.8-1.5-1.8H11c-.3 0-.5.1-.7.3l-.5.4c-.2.2-.4.3-.7.3h-3c-1 0-1.8.6-2 1.5z" style="fill:#e8b754;stroke:#917634;stroke-linecap:round;stroke-linejoin:round;stroke-miterlimit:10"/>
</svg>
