<svg version="1.1" id="Layer_1" xmlns="http://www.w3.org/2000/svg" x="0" y="0" width="20" height="20" viewBox="0 0 20 20" style="enable-background:new 0 0 20 20" xml:space="preserve">
  <style>
    .st3{fill:none;stroke:#fff;stroke-linecap:round;stroke-linejoin:round;stroke-miterlimit:10}.st4{display:none}.st5,.st6{display:inline;fill:#bf9447;stroke:#917634;stroke-linecap:round;stroke-linejoin:round;stroke-miterlimit:10}.st6{fill:#e8b754}
  </style>
  <path d="M14.5 18.5h-9c-1.1 0-2-.9-2-2v-13c0-1.1.9-2 2-2h6.6c.3 0 .5.1.7.3l3.4 3.4c.2.2.3.4.3.7v10.6c0 1.1-.9 2-2 2z" style="fill:#eaedef;stroke:#adb0b2;stroke-miterlimit:10"/>
  <path d="M12.5 2v2.5c0 .6.4 1 1 1H16" style="fill:#d5d8db;stroke:#adb0b2;stroke-miterlimit:10"/>
  <!-- <path d="M18.5 15.5h-17c-.6 0-1-.4-1-1v-6c0-.6.4-1 1-1h17c.6 0 1 .4 1 1v6c0 .6-.4 1-1 1z" style="fill:#ba8b36;stroke:#ba8b36;stroke-miterlimit:10"/> -->
  <!-- <path class="st3" d="M4.5 9.5v4"/>
  <path class="st3" d="M5 11.5h1"/>
  <path class="st3" d="M6.5 9.5v4"/>
  <path class="st3" d="M8.5 9.5v4h1c.6 0 1-.4 1-1v-2c0-.6-.4-1-1-1h-1z"/>
  <path class="st3" d="M12.5 13.5v-4h1c.6 0 1 .4 1 1h0c0 .6-.4 1-1 1h-1 1c.6 0 1 .4 1 1v1"/> -->
</svg>
