<svg class="line-icon" viewBox="0 0 24 24">
  <path d="M6,4h12c1.1,0,2,0.9,2,2v12c0,1.1-0.9,2-2,2H6c-1.1,0-2-0.9-2-2V6C4,4.9,4.9,4,6,4z" />
  <rect x="7" y="7" width="1" height="1" />
  <rect x="10" y="10" width="1" height="1" />
  <rect x="13" y="7" width="1" height="1" />
  <rect x="16" y="10" width="1" height="1" />
  <rect x="7" y="13" width="1" height="1" />
  <rect x="10" y="16" width="1" height="1" />
  <rect x="13" y="13" width="1" height="1" />
  <rect x="16" y="16" width="1" height="1" />
</svg>